<mxfile host="app.diagrams.net" modified="2023-06-06T15:51:15.457Z" agent="Mozilla/5.0 (Windows NT 10.0; Win64; x64) AppleWebKit/537.36 (KHTML, like Gecko) Chrome/113.0.0.0 Safari/537.36" etag="0vzu2KE0FImmd3TBqrT4" version="21.3.7" type="device" pages="2">
  <diagram name="Página-1" id="9GgyM8AdixZrV7wHXMrK">
    <mxGraphModel dx="1434" dy="2299" grid="1" gridSize="10" guides="1" tooltips="1" connect="1" arrows="1" fold="1" page="1" pageScale="1" pageWidth="900" pageHeight="1600" math="0" shadow="0">
      <root>
        <mxCell id="0" />
        <mxCell id="1" parent="0" />
        <mxCell id="RSxpEARsRqiDvHlryAlF-16" value="" style="shape=umlLifeline;perimeter=lifelinePerimeter;whiteSpace=wrap;html=1;container=1;dropTarget=0;collapsible=0;recursiveResize=0;outlineConnect=0;portConstraint=eastwest;newEdgeStyle={&quot;edgeStyle&quot;:&quot;elbowEdgeStyle&quot;,&quot;elbow&quot;:&quot;vertical&quot;,&quot;curved&quot;:0,&quot;rounded&quot;:0};participant=umlActor;size=0;" parent="1" vertex="1">
          <mxGeometry x="85" y="60" width="20" height="1390" as="geometry" />
        </mxCell>
        <mxCell id="RSxpEARsRqiDvHlryAlF-41" value="" style="html=1;points=[];perimeter=orthogonalPerimeter;outlineConnect=0;targetShapes=umlLifeline;portConstraint=eastwest;newEdgeStyle={&quot;edgeStyle&quot;:&quot;elbowEdgeStyle&quot;,&quot;elbow&quot;:&quot;vertical&quot;,&quot;curved&quot;:0,&quot;rounded&quot;:0};" parent="RSxpEARsRqiDvHlryAlF-16" vertex="1">
          <mxGeometry x="5" y="530" width="10" height="190" as="geometry" />
        </mxCell>
        <mxCell id="RSxpEARsRqiDvHlryAlF-13" value="" style="html=1;points=[];perimeter=orthogonalPerimeter;outlineConnect=0;targetShapes=umlLifeline;portConstraint=eastwest;newEdgeStyle={&quot;edgeStyle&quot;:&quot;elbowEdgeStyle&quot;,&quot;elbow&quot;:&quot;vertical&quot;,&quot;curved&quot;:0,&quot;rounded&quot;:0};" parent="RSxpEARsRqiDvHlryAlF-16" vertex="1">
          <mxGeometry x="5" y="20" width="10" height="40" as="geometry" />
        </mxCell>
        <mxCell id="6MwHVF8VYym7sGWVNojM-1" value="" style="html=1;points=[];perimeter=orthogonalPerimeter;outlineConnect=0;targetShapes=umlLifeline;portConstraint=eastwest;newEdgeStyle={&quot;edgeStyle&quot;:&quot;elbowEdgeStyle&quot;,&quot;elbow&quot;:&quot;vertical&quot;,&quot;curved&quot;:0,&quot;rounded&quot;:0};" parent="RSxpEARsRqiDvHlryAlF-16" vertex="1">
          <mxGeometry x="5" y="830" width="10" height="160" as="geometry" />
        </mxCell>
        <mxCell id="RSxpEARsRqiDvHlryAlF-17" value="" style="shape=umlLifeline;perimeter=lifelinePerimeter;whiteSpace=wrap;html=1;container=1;dropTarget=0;collapsible=0;recursiveResize=0;outlineConnect=0;portConstraint=eastwest;newEdgeStyle={&quot;edgeStyle&quot;:&quot;elbowEdgeStyle&quot;,&quot;elbow&quot;:&quot;vertical&quot;,&quot;curved&quot;:0,&quot;rounded&quot;:0};participant=umlActor;size=0;" parent="1" vertex="1">
          <mxGeometry x="215" y="60" width="20" height="1390" as="geometry" />
        </mxCell>
        <mxCell id="6MwHVF8VYym7sGWVNojM-6" value="" style="html=1;points=[];perimeter=orthogonalPerimeter;outlineConnect=0;targetShapes=umlLifeline;portConstraint=eastwest;newEdgeStyle={&quot;edgeStyle&quot;:&quot;elbowEdgeStyle&quot;,&quot;elbow&quot;:&quot;vertical&quot;,&quot;curved&quot;:0,&quot;rounded&quot;:0};" parent="RSxpEARsRqiDvHlryAlF-17" vertex="1">
          <mxGeometry x="5" y="1020" width="10" height="170" as="geometry" />
        </mxCell>
        <mxCell id="RSxpEARsRqiDvHlryAlF-1" value="Administrativo" style="shape=umlActor;verticalLabelPosition=bottom;verticalAlign=top;html=1;outlineConnect=0;" parent="1" vertex="1">
          <mxGeometry x="85" y="-20" width="30" height="60" as="geometry" />
        </mxCell>
        <mxCell id="RSxpEARsRqiDvHlryAlF-2" value="Médico" style="shape=umlActor;verticalLabelPosition=bottom;verticalAlign=top;html=1;outlineConnect=0;" parent="1" vertex="1">
          <mxGeometry x="210" y="-20" width="30" height="60" as="geometry" />
        </mxCell>
        <mxCell id="RSxpEARsRqiDvHlryAlF-4" value="Consola" style="text;html=1;strokeColor=none;fillColor=none;align=center;verticalAlign=middle;whiteSpace=wrap;rounded=0;" parent="1" vertex="1">
          <mxGeometry x="340" y="40" width="60" height="30" as="geometry" />
        </mxCell>
        <mxCell id="RSxpEARsRqiDvHlryAlF-6" value="Enfermeira" style="shape=umlActor;verticalLabelPosition=bottom;verticalAlign=top;html=1;outlineConnect=0;" parent="1" vertex="1">
          <mxGeometry x="500" y="-20" width="30" height="60" as="geometry" />
        </mxCell>
        <mxCell id="RSxpEARsRqiDvHlryAlF-9" value="Utente" style="shape=umlActor;verticalLabelPosition=bottom;verticalAlign=top;html=1;outlineConnect=0;" parent="1" vertex="1">
          <mxGeometry x="620" y="-20" width="30" height="60" as="geometry" />
        </mxCell>
        <mxCell id="RSxpEARsRqiDvHlryAlF-12" value="" style="shape=umlLifeline;perimeter=lifelinePerimeter;whiteSpace=wrap;html=1;container=1;dropTarget=0;collapsible=0;recursiveResize=0;outlineConnect=0;portConstraint=eastwest;newEdgeStyle={&quot;edgeStyle&quot;:&quot;elbowEdgeStyle&quot;,&quot;elbow&quot;:&quot;vertical&quot;,&quot;curved&quot;:0,&quot;rounded&quot;:0};participant=umlEntity;" parent="1" vertex="1">
          <mxGeometry x="350" width="40" height="1450" as="geometry" />
        </mxCell>
        <mxCell id="RSxpEARsRqiDvHlryAlF-14" value="" style="endArrow=open;endFill=1;endSize=12;html=1;rounded=0;" parent="1" edge="1">
          <mxGeometry width="160" relative="1" as="geometry">
            <mxPoint x="100" y="89.99999999999989" as="sourcePoint" />
            <mxPoint x="369.5" y="89.99999999999989" as="targetPoint" />
          </mxGeometry>
        </mxCell>
        <mxCell id="RSxpEARsRqiDvHlryAlF-45" value="Regista Utente" style="edgeLabel;html=1;align=center;verticalAlign=middle;resizable=0;points=[];" parent="RSxpEARsRqiDvHlryAlF-14" vertex="1" connectable="0">
          <mxGeometry x="-0.2545" y="-2" relative="1" as="geometry">
            <mxPoint as="offset" />
          </mxGeometry>
        </mxCell>
        <mxCell id="RSxpEARsRqiDvHlryAlF-15" value="" style="html=1;points=[];perimeter=orthogonalPerimeter;outlineConnect=0;targetShapes=umlLifeline;portConstraint=eastwest;newEdgeStyle={&quot;edgeStyle&quot;:&quot;elbowEdgeStyle&quot;,&quot;elbow&quot;:&quot;vertical&quot;,&quot;curved&quot;:0,&quot;rounded&quot;:0};" parent="1" vertex="1">
          <mxGeometry x="220" y="190" width="10" height="360" as="geometry" />
        </mxCell>
        <mxCell id="RSxpEARsRqiDvHlryAlF-19" value="" style="shape=umlLifeline;perimeter=lifelinePerimeter;whiteSpace=wrap;html=1;container=1;dropTarget=0;collapsible=0;recursiveResize=0;outlineConnect=0;portConstraint=eastwest;newEdgeStyle={&quot;edgeStyle&quot;:&quot;elbowEdgeStyle&quot;,&quot;elbow&quot;:&quot;vertical&quot;,&quot;curved&quot;:0,&quot;rounded&quot;:0};participant=umlActor;size=0;" parent="1" vertex="1">
          <mxGeometry x="505" y="60" width="20" height="1390" as="geometry" />
        </mxCell>
        <mxCell id="RSxpEARsRqiDvHlryAlF-23" value="" style="html=1;points=[];perimeter=orthogonalPerimeter;outlineConnect=0;targetShapes=umlLifeline;portConstraint=eastwest;newEdgeStyle={&quot;edgeStyle&quot;:&quot;elbowEdgeStyle&quot;,&quot;elbow&quot;:&quot;vertical&quot;,&quot;curved&quot;:0,&quot;rounded&quot;:0};" parent="RSxpEARsRqiDvHlryAlF-19" vertex="1">
          <mxGeometry x="5" y="30" width="10" height="100" as="geometry" />
        </mxCell>
        <mxCell id="6MwHVF8VYym7sGWVNojM-16" value="" style="html=1;points=[];perimeter=orthogonalPerimeter;outlineConnect=0;targetShapes=umlLifeline;portConstraint=eastwest;newEdgeStyle={&quot;edgeStyle&quot;:&quot;elbowEdgeStyle&quot;,&quot;elbow&quot;:&quot;vertical&quot;,&quot;curved&quot;:0,&quot;rounded&quot;:0};" parent="RSxpEARsRqiDvHlryAlF-19" vertex="1">
          <mxGeometry x="5" y="1160" width="10" height="190" as="geometry" />
        </mxCell>
        <mxCell id="RSxpEARsRqiDvHlryAlF-20" value="" style="shape=umlLifeline;perimeter=lifelinePerimeter;whiteSpace=wrap;html=1;container=1;dropTarget=0;collapsible=0;recursiveResize=0;outlineConnect=0;portConstraint=eastwest;newEdgeStyle={&quot;edgeStyle&quot;:&quot;elbowEdgeStyle&quot;,&quot;elbow&quot;:&quot;vertical&quot;,&quot;curved&quot;:0,&quot;rounded&quot;:0};participant=umlActor;size=0;" parent="1" vertex="1">
          <mxGeometry x="625" y="60" width="20" height="740" as="geometry" />
        </mxCell>
        <mxCell id="RSxpEARsRqiDvHlryAlF-36" value="" style="html=1;points=[];perimeter=orthogonalPerimeter;outlineConnect=0;targetShapes=umlLifeline;portConstraint=eastwest;newEdgeStyle={&quot;edgeStyle&quot;:&quot;elbowEdgeStyle&quot;,&quot;elbow&quot;:&quot;vertical&quot;,&quot;curved&quot;:0,&quot;rounded&quot;:0};" parent="RSxpEARsRqiDvHlryAlF-20" vertex="1">
          <mxGeometry x="5" y="90" width="10" height="30" as="geometry" />
        </mxCell>
        <mxCell id="RSxpEARsRqiDvHlryAlF-21" value="" style="endArrow=open;endFill=1;endSize=12;html=1;rounded=0;" parent="1" edge="1">
          <mxGeometry width="160" relative="1" as="geometry">
            <mxPoint x="230" y="240" as="sourcePoint" />
            <mxPoint x="369.5" y="240" as="targetPoint" />
          </mxGeometry>
        </mxCell>
        <mxCell id="RSxpEARsRqiDvHlryAlF-46" value="Regista consulta" style="edgeLabel;html=1;align=center;verticalAlign=middle;resizable=0;points=[];" parent="RSxpEARsRqiDvHlryAlF-21" vertex="1" connectable="0">
          <mxGeometry x="-0.1969" y="-2" relative="1" as="geometry">
            <mxPoint as="offset" />
          </mxGeometry>
        </mxCell>
        <mxCell id="RSxpEARsRqiDvHlryAlF-22" value="" style="endArrow=open;endFill=1;endSize=12;html=1;rounded=0;" parent="1" edge="1">
          <mxGeometry width="160" relative="1" as="geometry">
            <mxPoint x="370" y="140" as="sourcePoint" />
            <mxPoint x="510.5" y="140" as="targetPoint" />
          </mxGeometry>
        </mxCell>
        <mxCell id="RSxpEARsRqiDvHlryAlF-47" value="Solicita Triagem&lt;br&gt;do utente" style="edgeLabel;html=1;align=center;verticalAlign=middle;resizable=0;points=[];" parent="RSxpEARsRqiDvHlryAlF-22" vertex="1" connectable="0">
          <mxGeometry x="-0.22" y="-1" relative="1" as="geometry">
            <mxPoint x="5" y="-1" as="offset" />
          </mxGeometry>
        </mxCell>
        <mxCell id="RSxpEARsRqiDvHlryAlF-24" value="" style="endArrow=open;endFill=1;endSize=12;html=1;rounded=0;" parent="1" source="RSxpEARsRqiDvHlryAlF-23" target="RSxpEARsRqiDvHlryAlF-36" edge="1">
          <mxGeometry width="160" relative="1" as="geometry">
            <mxPoint x="470" y="220" as="sourcePoint" />
            <mxPoint x="550" y="220" as="targetPoint" />
            <Array as="points">
              <mxPoint x="540" y="160" />
            </Array>
          </mxGeometry>
        </mxCell>
        <mxCell id="RSxpEARsRqiDvHlryAlF-50" value="Examina &lt;br&gt;Utente" style="edgeLabel;html=1;align=center;verticalAlign=middle;resizable=0;points=[];" parent="RSxpEARsRqiDvHlryAlF-24" vertex="1" connectable="0">
          <mxGeometry x="-0.6" y="-2" relative="1" as="geometry">
            <mxPoint x="26" as="offset" />
          </mxGeometry>
        </mxCell>
        <mxCell id="RSxpEARsRqiDvHlryAlF-25" value="" style="endArrow=open;endFill=1;endSize=12;html=1;rounded=0;" parent="1" edge="1">
          <mxGeometry width="160" relative="1" as="geometry">
            <mxPoint x="510" y="180" as="sourcePoint" />
            <mxPoint x="369.5" y="180" as="targetPoint" />
          </mxGeometry>
        </mxCell>
        <mxCell id="RSxpEARsRqiDvHlryAlF-51" value="Regista triagem" style="edgeLabel;html=1;align=center;verticalAlign=middle;resizable=0;points=[];" parent="RSxpEARsRqiDvHlryAlF-25" vertex="1" connectable="0">
          <mxGeometry x="0.1815" y="4" relative="1" as="geometry">
            <mxPoint x="14" as="offset" />
          </mxGeometry>
        </mxCell>
        <mxCell id="RSxpEARsRqiDvHlryAlF-27" value="" style="endArrow=open;endFill=1;endSize=12;html=1;rounded=0;" parent="1" edge="1">
          <mxGeometry width="160" relative="1" as="geometry">
            <mxPoint x="369.5" y="280" as="sourcePoint" />
            <mxPoint x="230" y="280" as="targetPoint" />
          </mxGeometry>
        </mxCell>
        <mxCell id="RSxpEARsRqiDvHlryAlF-52" value="Solicita informações&amp;nbsp;&lt;br&gt;do utente" style="edgeLabel;html=1;align=center;verticalAlign=middle;resizable=0;points=[];" parent="RSxpEARsRqiDvHlryAlF-27" vertex="1" connectable="0">
          <mxGeometry x="-0.3763" y="4" relative="1" as="geometry">
            <mxPoint x="-21" as="offset" />
          </mxGeometry>
        </mxCell>
        <mxCell id="RSxpEARsRqiDvHlryAlF-28" value="" style="endArrow=open;endFill=1;endSize=12;html=1;rounded=0;" parent="1" edge="1">
          <mxGeometry width="160" relative="1" as="geometry">
            <mxPoint x="230" y="410" as="sourcePoint" />
            <mxPoint x="369.5" y="409.9999999999999" as="targetPoint" />
          </mxGeometry>
        </mxCell>
        <mxCell id="RSxpEARsRqiDvHlryAlF-53" value="Receita &lt;br&gt;Medicamento &lt;br&gt;e exames" style="edgeLabel;html=1;align=center;verticalAlign=middle;resizable=0;points=[];" parent="RSxpEARsRqiDvHlryAlF-28" vertex="1" connectable="0">
          <mxGeometry x="0.147" y="-3" relative="1" as="geometry">
            <mxPoint x="-20" as="offset" />
          </mxGeometry>
        </mxCell>
        <mxCell id="RSxpEARsRqiDvHlryAlF-32" value="" style="endArrow=open;endFill=1;endSize=12;html=1;rounded=0;" parent="1" edge="1">
          <mxGeometry width="160" relative="1" as="geometry">
            <mxPoint x="369.5" y="459.5" as="sourcePoint" />
            <mxPoint x="230" y="459.5" as="targetPoint" />
          </mxGeometry>
        </mxCell>
        <mxCell id="RSxpEARsRqiDvHlryAlF-57" value="Imprime resumo &lt;br&gt;da informação&lt;br&gt;&amp;nbsp;registada" style="edgeLabel;html=1;align=center;verticalAlign=middle;resizable=0;points=[];" parent="RSxpEARsRqiDvHlryAlF-32" vertex="1" connectable="0">
          <mxGeometry x="-0.362" y="2" relative="1" as="geometry">
            <mxPoint x="-14" y="-1" as="offset" />
          </mxGeometry>
        </mxCell>
        <mxCell id="RSxpEARsRqiDvHlryAlF-33" value="Fornece prescrições" style="endArrow=open;endFill=1;endSize=12;html=1;rounded=0;" parent="1" edge="1">
          <mxGeometry width="160" relative="1" as="geometry">
            <mxPoint x="230" y="510" as="sourcePoint" />
            <mxPoint x="630" y="510" as="targetPoint" />
          </mxGeometry>
        </mxCell>
        <mxCell id="RSxpEARsRqiDvHlryAlF-35" value="" style="html=1;points=[];perimeter=orthogonalPerimeter;outlineConnect=0;targetShapes=umlLifeline;portConstraint=eastwest;newEdgeStyle={&quot;edgeStyle&quot;:&quot;elbowEdgeStyle&quot;,&quot;elbow&quot;:&quot;vertical&quot;,&quot;curved&quot;:0,&quot;rounded&quot;:0};" parent="1" vertex="1">
          <mxGeometry x="1460" y="510" width="10" height="20" as="geometry" />
        </mxCell>
        <mxCell id="RSxpEARsRqiDvHlryAlF-39" value="" style="endArrow=open;endFill=1;endSize=12;html=1;rounded=0;" parent="1" edge="1">
          <mxGeometry width="160" relative="1" as="geometry">
            <mxPoint x="100" y="607" as="sourcePoint" />
            <mxPoint x="369.5" y="607" as="targetPoint" />
          </mxGeometry>
        </mxCell>
        <mxCell id="RSxpEARsRqiDvHlryAlF-59" value="Marca Nova&amp;nbsp;&lt;br&gt;consulta" style="edgeLabel;html=1;align=center;verticalAlign=middle;resizable=0;points=[];" parent="RSxpEARsRqiDvHlryAlF-39" vertex="1" connectable="0">
          <mxGeometry x="0.3907" y="-4" relative="1" as="geometry">
            <mxPoint x="-31" y="-9" as="offset" />
          </mxGeometry>
        </mxCell>
        <mxCell id="RSxpEARsRqiDvHlryAlF-40" value="" style="endArrow=open;endFill=1;endSize=12;html=1;rounded=0;" parent="1" edge="1">
          <mxGeometry width="160" relative="1" as="geometry">
            <mxPoint x="369.5" y="652" as="sourcePoint" />
            <mxPoint x="100" y="652" as="targetPoint" />
          </mxGeometry>
        </mxCell>
        <mxCell id="RSxpEARsRqiDvHlryAlF-60" value="Solicita data &lt;br&gt;e hora" style="edgeLabel;html=1;align=center;verticalAlign=middle;resizable=0;points=[];" parent="RSxpEARsRqiDvHlryAlF-40" vertex="1" connectable="0">
          <mxGeometry x="-0.2616" y="-1" relative="1" as="geometry">
            <mxPoint x="1" as="offset" />
          </mxGeometry>
        </mxCell>
        <mxCell id="RSxpEARsRqiDvHlryAlF-42" value="" style="endArrow=open;endFill=1;endSize=12;html=1;rounded=0;" parent="1" edge="1">
          <mxGeometry width="160" relative="1" as="geometry">
            <mxPoint x="369.5" y="944" as="sourcePoint" />
            <mxPoint x="100" y="944" as="targetPoint" />
          </mxGeometry>
        </mxCell>
        <mxCell id="RSxpEARsRqiDvHlryAlF-68" value="Solicita informações necessárias" style="edgeLabel;html=1;align=center;verticalAlign=middle;resizable=0;points=[];" parent="RSxpEARsRqiDvHlryAlF-42" vertex="1" connectable="0">
          <mxGeometry x="-0.2163" y="3" relative="1" as="geometry">
            <mxPoint x="1" as="offset" />
          </mxGeometry>
        </mxCell>
        <mxCell id="RSxpEARsRqiDvHlryAlF-43" value="" style="endArrow=open;endFill=1;endSize=12;html=1;rounded=0;" parent="1" edge="1">
          <mxGeometry width="160" relative="1" as="geometry">
            <mxPoint x="100" y="912.5" as="sourcePoint" />
            <mxPoint x="369.5" y="912.5" as="targetPoint" />
          </mxGeometry>
        </mxCell>
        <mxCell id="RSxpEARsRqiDvHlryAlF-69" value="Gera novo relatório" style="edgeLabel;html=1;align=center;verticalAlign=middle;resizable=0;points=[];" parent="RSxpEARsRqiDvHlryAlF-43" vertex="1" connectable="0">
          <mxGeometry x="0.2764" y="-1" relative="1" as="geometry">
            <mxPoint y="1" as="offset" />
          </mxGeometry>
        </mxCell>
        <mxCell id="RSxpEARsRqiDvHlryAlF-44" value="" style="endArrow=open;endFill=1;endSize=12;html=1;rounded=0;" parent="1" edge="1">
          <mxGeometry width="160" relative="1" as="geometry">
            <mxPoint x="369.25" y="1020" as="sourcePoint" />
            <mxPoint x="100" y="1020" as="targetPoint" />
          </mxGeometry>
        </mxCell>
        <mxCell id="RSxpEARsRqiDvHlryAlF-70" value="Gera relatório completo com toda&amp;nbsp;&lt;br&gt;a inofrmação" style="edgeLabel;html=1;align=center;verticalAlign=middle;resizable=0;points=[];" parent="RSxpEARsRqiDvHlryAlF-44" vertex="1" connectable="0">
          <mxGeometry x="-0.1495" y="2" relative="1" as="geometry">
            <mxPoint as="offset" />
          </mxGeometry>
        </mxCell>
        <mxCell id="RSxpEARsRqiDvHlryAlF-61" value="" style="endArrow=open;endFill=1;endSize=12;html=1;rounded=0;" parent="1" edge="1">
          <mxGeometry width="160" relative="1" as="geometry">
            <mxPoint x="100" y="691" as="sourcePoint" />
            <mxPoint x="370" y="691" as="targetPoint" />
          </mxGeometry>
        </mxCell>
        <mxCell id="RSxpEARsRqiDvHlryAlF-62" value="Escolhe data" style="edgeLabel;html=1;align=center;verticalAlign=middle;resizable=0;points=[];" parent="RSxpEARsRqiDvHlryAlF-61" vertex="1" connectable="0">
          <mxGeometry x="0.2571" y="3" relative="1" as="geometry">
            <mxPoint x="-27" as="offset" />
          </mxGeometry>
        </mxCell>
        <mxCell id="RSxpEARsRqiDvHlryAlF-64" value="" style="endArrow=open;endFill=1;endSize=12;html=1;rounded=0;" parent="1" edge="1">
          <mxGeometry width="160" relative="1" as="geometry">
            <mxPoint x="369.5" y="727" as="sourcePoint" />
            <mxPoint x="100" y="727" as="targetPoint" />
          </mxGeometry>
        </mxCell>
        <mxCell id="RSxpEARsRqiDvHlryAlF-65" value="Mostra consulta&lt;br&gt;marcada" style="edgeLabel;html=1;align=center;verticalAlign=middle;resizable=0;points=[];" parent="RSxpEARsRqiDvHlryAlF-64" vertex="1" connectable="0">
          <mxGeometry x="-0.3907" y="2" relative="1" as="geometry">
            <mxPoint x="-7" as="offset" />
          </mxGeometry>
        </mxCell>
        <mxCell id="RSxpEARsRqiDvHlryAlF-66" value="" style="endArrow=open;endFill=1;endSize=12;html=1;rounded=0;" parent="1" edge="1">
          <mxGeometry width="160" relative="1" as="geometry">
            <mxPoint x="230" y="540" as="sourcePoint" />
            <mxPoint x="370" y="540" as="targetPoint" />
          </mxGeometry>
        </mxCell>
        <mxCell id="RSxpEARsRqiDvHlryAlF-67" value="Termina&lt;br&gt;Consulta" style="edgeLabel;html=1;align=center;verticalAlign=middle;resizable=0;points=[];" parent="RSxpEARsRqiDvHlryAlF-66" vertex="1" connectable="0">
          <mxGeometry x="0.3857" y="-3" relative="1" as="geometry">
            <mxPoint x="-41" as="offset" />
          </mxGeometry>
        </mxCell>
        <mxCell id="RSxpEARsRqiDvHlryAlF-34" value="" style="html=1;points=[];perimeter=orthogonalPerimeter;outlineConnect=0;targetShapes=umlLifeline;portConstraint=eastwest;newEdgeStyle={&quot;edgeStyle&quot;:&quot;elbowEdgeStyle&quot;,&quot;elbow&quot;:&quot;vertical&quot;,&quot;curved&quot;:0,&quot;rounded&quot;:0};" parent="1" vertex="1">
          <mxGeometry x="630" y="490" width="10" height="40" as="geometry" />
        </mxCell>
        <mxCell id="g29pU-SYGdDy5otmO9rb-1" value="" style="endArrow=open;endFill=1;endSize=12;html=1;rounded=0;entryX=1;entryY=0.089;entryDx=0;entryDy=0;entryPerimeter=0;" parent="1" edge="1">
          <mxGeometry width="160" relative="1" as="geometry">
            <mxPoint x="369.5" y="210.16" as="sourcePoint" />
            <mxPoint x="230" y="210.00000000000003" as="targetPoint" />
            <Array as="points">
              <mxPoint x="270" y="210.16" />
            </Array>
          </mxGeometry>
        </mxCell>
        <mxCell id="g29pU-SYGdDy5otmO9rb-2" value="Envia triagem e &lt;br&gt;registo do utente" style="edgeLabel;html=1;align=center;verticalAlign=middle;resizable=0;points=[];" parent="g29pU-SYGdDy5otmO9rb-1" vertex="1" connectable="0">
          <mxGeometry x="-0.1969" y="-2" relative="1" as="geometry">
            <mxPoint as="offset" />
          </mxGeometry>
        </mxCell>
        <mxCell id="g29pU-SYGdDy5otmO9rb-4" value="" style="endArrow=open;endFill=1;endSize=12;html=1;rounded=0;" parent="1" edge="1">
          <mxGeometry width="160" relative="1" as="geometry">
            <mxPoint x="369.5" y="108" as="sourcePoint" />
            <mxPoint x="510" y="108" as="targetPoint" />
          </mxGeometry>
        </mxCell>
        <mxCell id="g29pU-SYGdDy5otmO9rb-5" value="Envia registo" style="edgeLabel;html=1;align=center;verticalAlign=middle;resizable=0;points=[];" parent="g29pU-SYGdDy5otmO9rb-4" vertex="1" connectable="0">
          <mxGeometry x="-0.2545" y="-2" relative="1" as="geometry">
            <mxPoint as="offset" />
          </mxGeometry>
        </mxCell>
        <mxCell id="g29pU-SYGdDy5otmO9rb-6" value="" style="endArrow=open;endFill=1;endSize=12;html=1;rounded=0;" parent="1" edge="1">
          <mxGeometry width="160" relative="1" as="geometry">
            <mxPoint x="230" y="320" as="sourcePoint" />
            <mxPoint x="369.5" y="319.9999999999999" as="targetPoint" />
          </mxGeometry>
        </mxCell>
        <mxCell id="g29pU-SYGdDy5otmO9rb-7" value="Faz Diagnóstico" style="edgeLabel;html=1;align=center;verticalAlign=middle;resizable=0;points=[];" parent="g29pU-SYGdDy5otmO9rb-6" vertex="1" connectable="0">
          <mxGeometry x="0.147" y="-3" relative="1" as="geometry">
            <mxPoint x="-5" as="offset" />
          </mxGeometry>
        </mxCell>
        <mxCell id="g29pU-SYGdDy5otmO9rb-8" value="" style="endArrow=open;endFill=1;endSize=12;html=1;rounded=0;" parent="1" edge="1">
          <mxGeometry width="160" relative="1" as="geometry">
            <mxPoint x="230" y="360" as="sourcePoint" />
            <mxPoint x="369.5" y="359.9999999999999" as="targetPoint" />
            <Array as="points">
              <mxPoint x="310" y="360" />
            </Array>
          </mxGeometry>
        </mxCell>
        <mxCell id="g29pU-SYGdDy5otmO9rb-9" value="Regista &lt;br&gt;antecedentes" style="edgeLabel;html=1;align=center;verticalAlign=middle;resizable=0;points=[];" parent="g29pU-SYGdDy5otmO9rb-8" vertex="1" connectable="0">
          <mxGeometry x="0.147" y="-3" relative="1" as="geometry">
            <mxPoint x="-5" as="offset" />
          </mxGeometry>
        </mxCell>
        <mxCell id="g29pU-SYGdDy5otmO9rb-10" value="ALT" style="shape=umlFrame;whiteSpace=wrap;html=1;pointerEvents=0;" parent="1" vertex="1">
          <mxGeometry x="20" y="820" width="660" height="640" as="geometry" />
        </mxCell>
        <mxCell id="g29pU-SYGdDy5otmO9rb-11" value="[Se quer gerar relatórios]" style="text;html=1;align=center;verticalAlign=middle;resizable=0;points=[];autosize=1;strokeColor=none;fillColor=none;" parent="1" vertex="1">
          <mxGeometry x="40" y="858" width="160" height="30" as="geometry" />
        </mxCell>
        <mxCell id="6MwHVF8VYym7sGWVNojM-4" value="" style="endArrow=open;endFill=1;endSize=12;html=1;rounded=0;" parent="1" edge="1">
          <mxGeometry width="160" relative="1" as="geometry">
            <mxPoint x="100" y="984.5" as="sourcePoint" />
            <mxPoint x="369.5" y="984.5" as="targetPoint" />
          </mxGeometry>
        </mxCell>
        <mxCell id="6MwHVF8VYym7sGWVNojM-5" value="IInsere informação solicitada" style="edgeLabel;html=1;align=center;verticalAlign=middle;resizable=0;points=[];" parent="6MwHVF8VYym7sGWVNojM-4" vertex="1" connectable="0">
          <mxGeometry x="0.2764" y="-1" relative="1" as="geometry">
            <mxPoint x="-32" y="1" as="offset" />
          </mxGeometry>
        </mxCell>
        <mxCell id="6MwHVF8VYym7sGWVNojM-7" value="" style="endArrow=open;endFill=1;endSize=12;html=1;rounded=0;" parent="1" edge="1">
          <mxGeometry width="160" relative="1" as="geometry">
            <mxPoint x="230" y="1090" as="sourcePoint" />
            <mxPoint x="369.5" y="1090" as="targetPoint" />
          </mxGeometry>
        </mxCell>
        <mxCell id="6MwHVF8VYym7sGWVNojM-8" value="Seleciona&lt;br&gt;&quot;Relatórios&quot;" style="edgeLabel;html=1;align=center;verticalAlign=middle;resizable=0;points=[];" parent="6MwHVF8VYym7sGWVNojM-7" vertex="1" connectable="0">
          <mxGeometry x="0.2764" y="-1" relative="1" as="geometry">
            <mxPoint x="-17" y="1" as="offset" />
          </mxGeometry>
        </mxCell>
        <mxCell id="6MwHVF8VYym7sGWVNojM-10" value="" style="endArrow=open;endFill=1;endSize=12;html=1;rounded=0;" parent="1" edge="1">
          <mxGeometry width="160" relative="1" as="geometry">
            <mxPoint x="369.5" y="1127" as="sourcePoint" />
            <mxPoint x="230" y="1127" as="targetPoint" />
          </mxGeometry>
        </mxCell>
        <mxCell id="6MwHVF8VYym7sGWVNojM-11" value="Mostra as três&lt;br&gt;opções" style="edgeLabel;html=1;align=center;verticalAlign=middle;resizable=0;points=[];" parent="6MwHVF8VYym7sGWVNojM-10" vertex="1" connectable="0">
          <mxGeometry x="-0.2163" y="3" relative="1" as="geometry">
            <mxPoint x="-14" as="offset" />
          </mxGeometry>
        </mxCell>
        <mxCell id="6MwHVF8VYym7sGWVNojM-12" value="" style="endArrow=open;endFill=1;endSize=12;html=1;rounded=0;exitX=1;exitY=0.8;exitDx=0;exitDy=0;exitPerimeter=0;" parent="1" edge="1">
          <mxGeometry width="160" relative="1" as="geometry">
            <mxPoint x="230" y="1164" as="sourcePoint" />
            <mxPoint x="370" y="1164" as="targetPoint" />
          </mxGeometry>
        </mxCell>
        <mxCell id="6MwHVF8VYym7sGWVNojM-13" value="Seleciona uma &lt;br&gt;das opções" style="edgeLabel;html=1;align=center;verticalAlign=middle;resizable=0;points=[];" parent="6MwHVF8VYym7sGWVNojM-12" vertex="1" connectable="0">
          <mxGeometry x="0.2764" y="-1" relative="1" as="geometry">
            <mxPoint x="-17" y="1" as="offset" />
          </mxGeometry>
        </mxCell>
        <mxCell id="6MwHVF8VYym7sGWVNojM-14" value="" style="endArrow=open;endFill=1;endSize=12;html=1;rounded=0;" parent="1" edge="1">
          <mxGeometry width="160" relative="1" as="geometry">
            <mxPoint x="369.5" y="1204" as="sourcePoint" />
            <mxPoint x="230" y="1204" as="targetPoint" />
          </mxGeometry>
        </mxCell>
        <mxCell id="6MwHVF8VYym7sGWVNojM-15" value="Gera relatório&lt;br&gt;completo" style="edgeLabel;html=1;align=center;verticalAlign=middle;resizable=0;points=[];" parent="6MwHVF8VYym7sGWVNojM-14" vertex="1" connectable="0">
          <mxGeometry x="-0.2163" y="3" relative="1" as="geometry">
            <mxPoint x="-14" as="offset" />
          </mxGeometry>
        </mxCell>
        <mxCell id="6MwHVF8VYym7sGWVNojM-19" value="" style="endArrow=open;endFill=1;endSize=12;html=1;rounded=0;" parent="1" edge="1">
          <mxGeometry width="160" relative="1" as="geometry">
            <mxPoint x="510" y="1256" as="sourcePoint" />
            <mxPoint x="369.5" y="1256" as="targetPoint" />
          </mxGeometry>
        </mxCell>
        <mxCell id="6MwHVF8VYym7sGWVNojM-20" value="Seleciona&lt;br&gt;&quot;Relatórios&quot;" style="edgeLabel;html=1;align=center;verticalAlign=middle;resizable=0;points=[];" parent="6MwHVF8VYym7sGWVNojM-19" vertex="1" connectable="0">
          <mxGeometry x="0.2764" y="-1" relative="1" as="geometry">
            <mxPoint x="29" y="1" as="offset" />
          </mxGeometry>
        </mxCell>
        <mxCell id="6MwHVF8VYym7sGWVNojM-21" value="" style="endArrow=open;endFill=1;endSize=12;html=1;rounded=0;" parent="1" edge="1">
          <mxGeometry width="160" relative="1" as="geometry">
            <mxPoint x="369.5" y="1302" as="sourcePoint" />
            <mxPoint x="510" y="1302" as="targetPoint" />
          </mxGeometry>
        </mxCell>
        <mxCell id="6MwHVF8VYym7sGWVNojM-22" value="Mostra as três&lt;br&gt;opções" style="edgeLabel;html=1;align=center;verticalAlign=middle;resizable=0;points=[];" parent="6MwHVF8VYym7sGWVNojM-21" vertex="1" connectable="0">
          <mxGeometry x="-0.2163" y="3" relative="1" as="geometry">
            <mxPoint x="3" as="offset" />
          </mxGeometry>
        </mxCell>
        <mxCell id="6MwHVF8VYym7sGWVNojM-23" value="" style="endArrow=open;endFill=1;endSize=12;html=1;rounded=0;" parent="1" edge="1">
          <mxGeometry width="160" relative="1" as="geometry">
            <mxPoint x="510" y="1340" as="sourcePoint" />
            <mxPoint x="369.5" y="1339.04" as="targetPoint" />
          </mxGeometry>
        </mxCell>
        <mxCell id="6MwHVF8VYym7sGWVNojM-24" value="Seleciona uma &lt;br&gt;das opções" style="edgeLabel;html=1;align=center;verticalAlign=middle;resizable=0;points=[];" parent="6MwHVF8VYym7sGWVNojM-23" vertex="1" connectable="0">
          <mxGeometry x="0.2764" y="-1" relative="1" as="geometry">
            <mxPoint x="20" y="1" as="offset" />
          </mxGeometry>
        </mxCell>
        <mxCell id="6MwHVF8VYym7sGWVNojM-25" value="" style="endArrow=open;endFill=1;endSize=12;html=1;rounded=0;" parent="1" edge="1">
          <mxGeometry width="160" relative="1" as="geometry">
            <mxPoint x="369.5" y="1382" as="sourcePoint" />
            <mxPoint x="510" y="1382" as="targetPoint" />
          </mxGeometry>
        </mxCell>
        <mxCell id="6MwHVF8VYym7sGWVNojM-26" value="Gera relatório&lt;br&gt;completo" style="edgeLabel;html=1;align=center;verticalAlign=middle;resizable=0;points=[];" parent="6MwHVF8VYym7sGWVNojM-25" vertex="1" connectable="0">
          <mxGeometry x="-0.2163" y="3" relative="1" as="geometry">
            <mxPoint x="6" y="1" as="offset" />
          </mxGeometry>
        </mxCell>
      </root>
    </mxGraphModel>
  </diagram>
  <diagram id="F5i8fadLLPj2SjIbiCMU" name="Página-2">
    <mxGraphModel dx="1434" dy="699" grid="1" gridSize="10" guides="1" tooltips="1" connect="1" arrows="1" fold="1" page="1" pageScale="1" pageWidth="827" pageHeight="1169" math="0" shadow="0">
      <root>
        <mxCell id="0" />
        <mxCell id="1" parent="0" />
        <mxCell id="z32S_onGp-nGMRUyagJt-1" value="Funcionários" style="shape=umlActor;verticalLabelPosition=bottom;verticalAlign=top;html=1;" parent="1" vertex="1">
          <mxGeometry x="160" y="40" width="30" height="60" as="geometry" />
        </mxCell>
        <mxCell id="z32S_onGp-nGMRUyagJt-2" value="" style="shape=umlLifeline;perimeter=lifelinePerimeter;whiteSpace=wrap;html=1;container=1;dropTarget=0;collapsible=0;recursiveResize=0;outlineConnect=0;portConstraint=eastwest;newEdgeStyle={&quot;edgeStyle&quot;:&quot;elbowEdgeStyle&quot;,&quot;elbow&quot;:&quot;vertical&quot;,&quot;curved&quot;:0,&quot;rounded&quot;:0};participant=umlEntity;" parent="1" vertex="1">
          <mxGeometry x="330" y="60" width="40" height="620" as="geometry" />
        </mxCell>
        <mxCell id="z32S_onGp-nGMRUyagJt-3" value="" style="shape=umlLifeline;perimeter=lifelinePerimeter;whiteSpace=wrap;html=1;container=1;dropTarget=0;collapsible=0;recursiveResize=0;outlineConnect=0;portConstraint=eastwest;newEdgeStyle={&quot;edgeStyle&quot;:&quot;elbowEdgeStyle&quot;,&quot;elbow&quot;:&quot;vertical&quot;,&quot;curved&quot;:0,&quot;rounded&quot;:0};participant=umlActor;size=0;" parent="1" vertex="1">
          <mxGeometry x="165" y="120" width="20" height="560" as="geometry" />
        </mxCell>
        <mxCell id="z32S_onGp-nGMRUyagJt-9" value="" style="html=1;points=[];perimeter=orthogonalPerimeter;outlineConnect=0;targetShapes=umlLifeline;portConstraint=eastwest;newEdgeStyle={&quot;edgeStyle&quot;:&quot;elbowEdgeStyle&quot;,&quot;elbow&quot;:&quot;vertical&quot;,&quot;curved&quot;:0,&quot;rounded&quot;:0};" parent="z32S_onGp-nGMRUyagJt-3" vertex="1">
          <mxGeometry x="5" y="30" width="10" height="270" as="geometry" />
        </mxCell>
        <mxCell id="z32S_onGp-nGMRUyagJt-4" value="" style="endArrow=open;endFill=1;endSize=12;html=1;rounded=0;" parent="1" source="z32S_onGp-nGMRUyagJt-9" edge="1">
          <mxGeometry width="160" relative="1" as="geometry">
            <mxPoint x="190" y="157" as="sourcePoint" />
            <mxPoint x="349.5" y="157" as="targetPoint" />
          </mxGeometry>
        </mxCell>
        <mxCell id="z32S_onGp-nGMRUyagJt-5" value="Faz Login" style="edgeLabel;html=1;align=center;verticalAlign=middle;resizable=0;points=[];" parent="z32S_onGp-nGMRUyagJt-4" vertex="1" connectable="0">
          <mxGeometry x="-0.1143" y="-1" relative="1" as="geometry">
            <mxPoint x="1" as="offset" />
          </mxGeometry>
        </mxCell>
        <mxCell id="z32S_onGp-nGMRUyagJt-6" value="" style="endArrow=open;endFill=1;endSize=12;html=1;rounded=0;" parent="1" target="z32S_onGp-nGMRUyagJt-9" edge="1">
          <mxGeometry width="160" relative="1" as="geometry">
            <mxPoint x="348.5" y="199" as="sourcePoint" />
            <mxPoint x="200" y="199" as="targetPoint" />
          </mxGeometry>
        </mxCell>
        <mxCell id="z32S_onGp-nGMRUyagJt-7" value="Solicita Operação" style="edgeLabel;html=1;align=center;verticalAlign=middle;resizable=0;points=[];" parent="z32S_onGp-nGMRUyagJt-6" vertex="1" connectable="0">
          <mxGeometry x="-0.4457" y="-1" relative="1" as="geometry">
            <mxPoint x="-31" as="offset" />
          </mxGeometry>
        </mxCell>
        <mxCell id="z32S_onGp-nGMRUyagJt-8" value="ALT" style="shape=umlFrame;whiteSpace=wrap;html=1;pointerEvents=0;" parent="1" vertex="1">
          <mxGeometry x="80" y="220" width="500" height="470" as="geometry" />
        </mxCell>
        <mxCell id="z32S_onGp-nGMRUyagJt-10" value="[Se quer consultar calendário]" style="text;html=1;align=center;verticalAlign=middle;resizable=0;points=[];autosize=1;strokeColor=none;fillColor=none;" parent="1" vertex="1">
          <mxGeometry x="80" y="250" width="180" height="30" as="geometry" />
        </mxCell>
        <mxCell id="z32S_onGp-nGMRUyagJt-11" value="" style="endArrow=open;endFill=1;endSize=12;html=1;rounded=0;entryX=0.5;entryY=0.564;entryDx=0;entryDy=0;entryPerimeter=0;" parent="1" edge="1">
          <mxGeometry width="160" relative="1" as="geometry">
            <mxPoint x="180" y="310" as="sourcePoint" />
            <mxPoint x="350" y="310" as="targetPoint" />
          </mxGeometry>
        </mxCell>
        <mxCell id="z32S_onGp-nGMRUyagJt-12" value="Clica no botão &lt;br&gt;&quot;Calendário" style="edgeLabel;html=1;align=center;verticalAlign=middle;resizable=0;points=[];" parent="z32S_onGp-nGMRUyagJt-11" vertex="1" connectable="0">
          <mxGeometry x="0.4353" y="1" relative="1" as="geometry">
            <mxPoint x="-36" as="offset" />
          </mxGeometry>
        </mxCell>
        <mxCell id="z32S_onGp-nGMRUyagJt-13" value="" style="endArrow=open;endFill=1;endSize=12;html=1;rounded=0;" parent="1" edge="1">
          <mxGeometry width="160" relative="1" as="geometry">
            <mxPoint x="349.5" y="350" as="sourcePoint" />
            <mxPoint x="180" y="350" as="targetPoint" />
          </mxGeometry>
        </mxCell>
        <mxCell id="z32S_onGp-nGMRUyagJt-14" value="Solicita a especificação&amp;nbsp;&lt;br&gt;de um mês" style="edgeLabel;html=1;align=center;verticalAlign=middle;resizable=0;points=[];" parent="z32S_onGp-nGMRUyagJt-13" vertex="1" connectable="0">
          <mxGeometry x="-0.2271" y="-1" relative="1" as="geometry">
            <mxPoint x="-14" as="offset" />
          </mxGeometry>
        </mxCell>
        <mxCell id="z32S_onGp-nGMRUyagJt-15" value="" style="endArrow=none;dashed=1;html=1;dashPattern=1 3;strokeWidth=2;rounded=0;entryX=1.006;entryY=0.449;entryDx=0;entryDy=0;entryPerimeter=0;exitX=-0.011;exitY=0.668;exitDx=0;exitDy=0;exitPerimeter=0;" parent="1" target="z32S_onGp-nGMRUyagJt-8" edge="1">
          <mxGeometry width="50" height="50" relative="1" as="geometry">
            <mxPoint x="79.99999999999996" y="430.93000000000006" as="sourcePoint" />
            <mxPoint x="448.99999999999994" y="430" as="targetPoint" />
          </mxGeometry>
        </mxCell>
        <mxCell id="z32S_onGp-nGMRUyagJt-16" value="[Se quer registar despesas]" style="text;html=1;align=center;verticalAlign=middle;resizable=0;points=[];autosize=1;strokeColor=none;fillColor=none;" parent="1" vertex="1">
          <mxGeometry x="80" y="440" width="180" height="30" as="geometry" />
        </mxCell>
        <mxCell id="z32S_onGp-nGMRUyagJt-25" value="Consola" style="text;html=1;align=center;verticalAlign=middle;resizable=0;points=[];autosize=1;strokeColor=none;fillColor=none;" parent="1" vertex="1">
          <mxGeometry x="315" y="100" width="70" height="30" as="geometry" />
        </mxCell>
        <mxCell id="rcamKw0dPYU0Ho9wuu6d-1" value="Motorista" style="shape=umlActor;verticalLabelPosition=bottom;verticalAlign=top;html=1;" parent="1" vertex="1">
          <mxGeometry x="495" y="40" width="30" height="60" as="geometry" />
        </mxCell>
        <mxCell id="rcamKw0dPYU0Ho9wuu6d-2" value="" style="shape=umlLifeline;perimeter=lifelinePerimeter;whiteSpace=wrap;html=1;container=1;dropTarget=0;collapsible=0;recursiveResize=0;outlineConnect=0;portConstraint=eastwest;newEdgeStyle={&quot;edgeStyle&quot;:&quot;elbowEdgeStyle&quot;,&quot;elbow&quot;:&quot;vertical&quot;,&quot;curved&quot;:0,&quot;rounded&quot;:0};participant=umlActor;size=0;" parent="1" vertex="1">
          <mxGeometry x="500" y="130" width="20" height="550" as="geometry" />
        </mxCell>
        <mxCell id="rcamKw0dPYU0Ho9wuu6d-3" value="" style="html=1;points=[];perimeter=orthogonalPerimeter;outlineConnect=0;targetShapes=umlLifeline;portConstraint=eastwest;newEdgeStyle={&quot;edgeStyle&quot;:&quot;elbowEdgeStyle&quot;,&quot;elbow&quot;:&quot;vertical&quot;,&quot;curved&quot;:0,&quot;rounded&quot;:0};" parent="rcamKw0dPYU0Ho9wuu6d-2" vertex="1">
          <mxGeometry x="5" y="350" width="10" height="140" as="geometry" />
        </mxCell>
        <mxCell id="MjSPq6mreWmTzFio3LSk-1" value="" style="endArrow=open;endFill=1;endSize=12;html=1;rounded=0;entryX=0.5;entryY=0.564;entryDx=0;entryDy=0;entryPerimeter=0;" parent="1" edge="1">
          <mxGeometry width="160" relative="1" as="geometry">
            <mxPoint x="180" y="400" as="sourcePoint" />
            <mxPoint x="350" y="400" as="targetPoint" />
            <Array as="points">
              <mxPoint x="260" y="400" />
            </Array>
          </mxGeometry>
        </mxCell>
        <mxCell id="MjSPq6mreWmTzFio3LSk-2" value="Fornece agenda desse&lt;br&gt;mês" style="edgeLabel;html=1;align=center;verticalAlign=middle;resizable=0;points=[];" parent="MjSPq6mreWmTzFio3LSk-1" vertex="1" connectable="0">
          <mxGeometry x="0.4353" y="1" relative="1" as="geometry">
            <mxPoint x="-42" as="offset" />
          </mxGeometry>
        </mxCell>
        <mxCell id="FDvt8SMloKk--l6SLdTB-3" value="" style="endArrow=open;endFill=1;endSize=12;html=1;rounded=0;" parent="1" edge="1">
          <mxGeometry width="160" relative="1" as="geometry">
            <mxPoint x="505" y="496" as="sourcePoint" />
            <mxPoint x="349.5" y="496" as="targetPoint" />
          </mxGeometry>
        </mxCell>
        <mxCell id="FDvt8SMloKk--l6SLdTB-4" value="Clica no botão&lt;br&gt;&quot;Despesas" style="edgeLabel;html=1;align=center;verticalAlign=middle;resizable=0;points=[];" parent="FDvt8SMloKk--l6SLdTB-3" vertex="1" connectable="0">
          <mxGeometry x="-0.2271" y="-1" relative="1" as="geometry">
            <mxPoint x="-14" as="offset" />
          </mxGeometry>
        </mxCell>
        <mxCell id="FDvt8SMloKk--l6SLdTB-5" value="" style="endArrow=open;endFill=1;endSize=12;html=1;rounded=0;" parent="1" edge="1">
          <mxGeometry width="160" relative="1" as="geometry">
            <mxPoint x="349.5" y="535" as="sourcePoint" />
            <mxPoint x="505" y="535" as="targetPoint" />
            <Array as="points">
              <mxPoint x="450" y="535" />
            </Array>
          </mxGeometry>
        </mxCell>
        <mxCell id="FDvt8SMloKk--l6SLdTB-6" value="Solicita registo&amp;nbsp;&lt;br&gt;das despesas" style="edgeLabel;html=1;align=center;verticalAlign=middle;resizable=0;points=[];" parent="FDvt8SMloKk--l6SLdTB-5" vertex="1" connectable="0">
          <mxGeometry x="0.4353" y="1" relative="1" as="geometry">
            <mxPoint x="-42" as="offset" />
          </mxGeometry>
        </mxCell>
        <mxCell id="FDvt8SMloKk--l6SLdTB-7" value="" style="endArrow=open;endFill=1;endSize=12;html=1;rounded=0;" parent="1" edge="1">
          <mxGeometry width="160" relative="1" as="geometry">
            <mxPoint x="505.5" y="572" as="sourcePoint" />
            <mxPoint x="350" y="572" as="targetPoint" />
          </mxGeometry>
        </mxCell>
        <mxCell id="FDvt8SMloKk--l6SLdTB-8" value="Regista despesas" style="edgeLabel;html=1;align=center;verticalAlign=middle;resizable=0;points=[];" parent="FDvt8SMloKk--l6SLdTB-7" vertex="1" connectable="0">
          <mxGeometry x="-0.2271" y="-1" relative="1" as="geometry">
            <mxPoint x="-14" as="offset" />
          </mxGeometry>
        </mxCell>
        <mxCell id="FDvt8SMloKk--l6SLdTB-9" value="" style="endArrow=open;endFill=1;endSize=12;html=1;rounded=0;" parent="1" edge="1">
          <mxGeometry width="160" relative="1" as="geometry">
            <mxPoint x="350" y="609" as="sourcePoint" />
            <mxPoint x="505" y="609" as="targetPoint" />
            <Array as="points">
              <mxPoint x="450" y="609" />
            </Array>
          </mxGeometry>
        </mxCell>
        <mxCell id="FDvt8SMloKk--l6SLdTB-10" value="Imprime resumo&lt;br&gt;de despesas" style="edgeLabel;html=1;align=center;verticalAlign=middle;resizable=0;points=[];" parent="FDvt8SMloKk--l6SLdTB-9" vertex="1" connectable="0">
          <mxGeometry x="0.4353" y="1" relative="1" as="geometry">
            <mxPoint x="-42" as="offset" />
          </mxGeometry>
        </mxCell>
      </root>
    </mxGraphModel>
  </diagram>
</mxfile>
